<?xml version="1.0" encoding="UTF-8"?>
<svg id="_레이어_1" data-name="레이어 1" xmlns="http://www.w3.org/2000/svg" version="1.1" viewBox="0 0 612 792">
  <defs>
    <style>
      .cls-1 {
        fill: #5aac62;
      }

      .cls-1, .cls-2, .cls-3, .cls-4, .cls-5, .cls-6, .cls-7, .cls-8, .cls-9, .cls-10, .cls-11, .cls-12, .cls-13, .cls-14, .cls-15, .cls-16, .cls-17, .cls-18 {
        stroke-width: 0px;
      }

      .cls-2 {
        fill: #55aa5d;
      }

      .cls-3 {
        fill: #5cac63;
      }

      .cls-4 {
        fill: #53a95c;
      }

      .cls-5 {
        fill: #51a85a;
      }

      .cls-6 {
        fill: #5bac62;
      }

      .cls-7 {
        fill: #54aa5d;
      }

      .cls-8 {
        fill: #60ae65;
      }

      .cls-9 {
        fill: #fefefe;
      }

      .cls-10 {
        fill: #56aa5f;
      }

      .cls-11 {
        fill: #63af68;
      }

      .cls-12 {
        fill: #52a85b;
      }

      .cls-13 {
        fill: #59ab60;
      }

      .cls-14 {
        fill: #51a85b;
      }

      .cls-15 {
        fill: #57ab5f;
      }

      .cls-16 {
        fill: #58ab60;
      }

      .cls-17 {
        fill: #58ab5f;
      }

      .cls-18 {
        fill: #57aa5f;
      }
    </style>
  </defs>
  <path class="cls-12" d="M420.66,372.97c0,72.18-58.57,130.36-131.2,130.34-72.17-.01-130.42-58.6-130.39-131.14.03-71.94,58.87-129.99,131.7-129.92,71.58.07,129.9,58.76,129.89,130.72ZM411,372.89c.07-66.62-54.19-120.88-120.98-120.99-66.74-.11-121.2,54.12-121.28,120.75-.08,66.62,54.19,120.93,120.95,121.02,66.71.09,121.25-54.21,121.31-120.78Z"/>
  <path class="cls-4" d="M94.7,296.25h50.06c1.15,6.23,2.53,12.52,3.42,18.88,1.14,8.09,1.98,16.22,2.76,24.35.87,9.05.42,17.95-3.94,26.23-2.52,4.79-5.97,8.72-10.75,11.36-3.13,1.73-4.43,4.13-4.32,7.79.91,30.51,1.65,61.02,2.51,91.53.18,6.23-1.96,11.19-7.45,14.3-9.92,5.61-21.89-1.56-21.71-13.14.29-18.25.91-36.5,1.37-54.74.32-12.96.58-25.93.92-38.89.07-2.55-.84-4.5-3.04-5.73-10.6-5.94-15.43-15.58-16.02-27.08-.95-18.53,2.19-36.72,6.18-54.85ZM133.31,305.3v3.12c0,13.37,0,26.74,0,40.1,0,.8.24,1.76-.12,2.35-.5.83-1.45,1.9-2.22,1.91-.8.01-1.86-.97-2.35-1.79-.4-.67-.15-1.75-.15-2.64,0-13.37,0-26.74,0-40.11,0-1.06,0-2.11,0-3.09h-6.23v3.45c0,12.87,0,25.74,0,38.61,0,.8.02,1.6-.01,2.39-.06,1.68-.72,3.25-2.58,2.84-.96-.21-1.74-1.71-2.36-2.77-.3-.52-.06-1.37-.06-2.06,0-13.07,0-26.14,0-39.21v-3.31h-6.26c0,1.21,0,2.28,0,3.35,0,11.77,0,23.54,0,35.32,0,2.09.24,4.23-.12,6.27-.17.94-1.52,1.68-2.33,2.5-.8-.82-1.78-1.54-2.35-2.5-.35-.6-.08-1.56-.08-2.36,0-13.07,0-26.14,0-39.21v-3.4c-1.91.12-4.03-1.31-4.57,1.59-2.68,14.23-4.79,28.53-4.26,43.05.33,8.95,3.7,16.36,11.98,21.04,5,2.83,7.34,7.44,7.19,13.22-.14,5.18-.29,10.37-.43,15.55-.4,15.75-.8,31.51-1.19,47.26-.25,10.17-.54,20.34-.72,30.51-.08,4.54,3.26,7.28,7.35,6.25,2.75-.7,4.18-2.97,4.08-6.78-.79-30.31-1.52-60.62-2.47-90.93-.23-7.21,2.21-12.54,8.55-16.15,5.03-2.87,8.23-7.34,9.44-12.92.85-3.95,1.6-8.13,1.24-12.1-1.08-12.09-2.78-24.13-4.08-36.2-.33-3.1-1.54-4.29-4.89-3.18Z"/>
  <path class="cls-4" d="M468.02,386.9c.75,21.54,1.81,51.83,2.87,82.13.08,2.29.15,4.59.16,6.88.06,9.34-7.35,16.69-16.74,16.63-9.04-.06-16.52-7.73-16.12-16.89,1.2-27.6,2.51-55.19,3.86-82.78.08-1.7-.29-2.57-1.89-3.12-1.31-.45-2.53-1.17-3.74-1.87-3.97-2.3-5.86-5.48-5.54-10.33,1.55-23.98,2.74-47.98,4.35-71.95.62-9.26,2.13-18.48,6.46-26.86,1.62-3.13,3.8-6.13,6.3-8.61,3.33-3.29,7.55-4.39,12.14-2.42,4.75,2.03,7.31,5.69,7.85,10.77.1.99.04,1.99.04,2.99,0,32.22,0,64.44,0,105.42ZM459.13,384.79c0-38.81,0-70.95,0-103.08,0-.9.26-1.92-.08-2.67-.53-1.17-1.26-2.56-2.3-3.1-.72-.38-2.55.15-3.11.87-1.81,2.34-3.97,4.75-4.73,7.49-1.99,7.17-3.95,14.45-4.75,21.81-1.28,11.89-1.64,23.87-2.35,35.82-.69,11.75-1.29,23.5-2.03,35.25-.12,1.88.43,3.04,2.14,3.72,2.5,1,5.05,1.9,7.43,3.12.81.41,1.75,1.67,1.72,2.5-.56,14.35-1.28,28.7-1.95,43.04-.72,15.54-1.47,31.08-2.08,46.63-.18,4.41,3.12,7.5,7.54,7.51,4.37,0,7.63-3.1,7.62-7.5-.01-4.89-.2-9.78-.37-14.66-.97-27.81-1.96-55.62-2.71-76.76Z"/>
  <path class="cls-12" d="M381.65,372.8c.01,50.84-41.04,91.6-92.25,91.59-50.3,0-91.35-41.17-91.33-91.59.02-50.73,41.08-91.65,91.94-91.63,50.55.02,91.63,41.09,91.64,91.62ZM372.02,372.53c.04-44.75-36.94-81.66-81.87-81.73-45.35-.07-82.46,36.75-82.44,81.8.02,45.45,36.76,82.14,82.29,82.19,45.12.05,81.98-36.91,82.02-82.25Z"/>
  <path class="cls-13" d="M323.67,264.03c3.31,1.98,6.21,3.77,9.17,5.45.54.3,1.31.24,1.98.26,4.64.13,6.86,3.41,5.12,7.72-.93,2.29-2,4.52-3.13,7.03-1.27-.55-2.33-1.01-3.63-1.58.98-2.23,2.11-4.22,2.68-6.37.27-1.05-.52-2.38-.83-3.58-.96.67-2.24,1.13-2.81,2.04-1.14,1.84-1.89,3.92-2.92,6.17-1.23-.55-2.34-1.04-3.59-1.6,1.02-2.36,2.09-4.4,2.74-6.56.28-.92-.31-2.1-.5-3.16-1.04.48-2.52.69-3.05,1.5-1.22,1.9-1.99,4.1-3.08,6.47-1.26-.57-2.38-1.09-3.63-1.65,1.8-3.99,3.51-7.79,5.47-12.15Z"/>
  <path class="cls-10" d="M302.25,266.36c-1.29,4.64-5.5,7.14-10.68,6.37-4.8-.71-8.01-4.68-7.85-9.72.16-5.11,3.6-8.71,8.83-9.18,4.16-.38,9.44,2.3,9.72,7.83-1.92-.99-3.59-1.53-4.85-2.57-2.15-1.79-5.86-1.9-7.96.1-2.11,2.01-2.2,5.94-.18,8.16,1.99,2.19,5.73,2.58,7.78.32,1.63-1.79,3.17-2.01,5.19-1.29Z"/>
  <path class="cls-18" d="M268.21,255.96c1.25-.3,2.36-.56,3.83-.91,1.44,6.01,2.84,11.86,4.28,17.88-2.88.86-5.54,1.89-8.29,2.4-3.47.65-6.57-2.26-6.98-6.16-.41-3.9,1.8-6.9,5.4-7.25.88-.09,1.77-.01,3.02-.01-.41-1.93-.8-3.8-1.25-5.95ZM271.7,269.22c0-.48,0-.96,0-1.44-1.3-.91-2.56-2.43-3.91-2.52-.92-.06-2.64,1.8-2.81,2.97-.26,1.79.83,3.79,3.09,3.42,1.31-.21,2.42-1.59,3.62-2.44Z"/>
  <path class="cls-18" d="M341.59,287.18c-1.35,1.81-2.47,3.3-3.72,4.98-1.07-.74-2.02-1.4-3.24-2.25,3.57-5,7.06-9.89,10.54-14.77,2.38,1.45,4.7,2.67,6.79,4.19,2.2,1.59,3.06,3.83,2.2,6.57-.91,2.88-2.7,4.94-5.75,5.4-3.11.48-5.38-.94-6.83-4.13ZM348.46,280.89c-3.25.35-4.64,1.84-4.32,3.85.18,1.12,2,1.97,3.08,2.95,1.1-1.23,2.69-2.32,3.1-3.75.25-.86-1.33-2.25-1.86-3.05Z"/>
  <path class="cls-15" d="M319.15,263.52c-.93,4.15-1.81,8.12-2.71,12.12-3.01-.45-5.87-.62-8.59-1.34-3.09-.82-4.61-4.36-3.75-7.81.94-3.77,3.72-5.92,7.15-5.21,2.59.53,5.11,1.43,7.89,2.24ZM307.33,269.12c1.24.8,2.45,2.19,3.72,2.25,2.11.1,2.96-1.68,2.9-3.69-.06-1.9-1.16-2.92-3.05-2.88-2.28.05-2.96,1.61-3.58,4.32Z"/>
  <path class="cls-2" d="M214.78,286.46c3.63-3.45,6.73-6.38,9.94-9.44.83.87,1.56,1.63,2.4,2.52-2.2,2.11-4.27,4.1-6.58,6.32.9.96,1.68,1.8,2.7,2.9,2.06-1.84,4.01-3.58,6.22-5.55.76.83,1.42,1.55,2.26,2.47-2.02,1.79-3.94,3.48-6.1,5.39,1.83,2.03,3.32,3.69,4.9,5.43-.97.91-1.83,1.72-2.24,2.11-4.45-4-8.81-7.93-13.5-12.15Z"/>
  <path class="cls-13" d="M252.95,280.3c-3.56,0-6.77-3.39-6.72-7.08.05-3.67,3.49-6.85,7.36-6.81,3.56.03,6.73,3.38,6.72,7.09,0,3.63-3.44,6.8-7.37,6.8ZM257.74,273.82c-2.03-1.76-3.09-3.34-4.47-3.71-1.6-.43-3.03.79-3.05,2.74-.02,2.11.94,3.89,3.18,3.77,1.18-.06,2.3-1.42,4.34-2.8Z"/>
  <path class="cls-15" d="M239.83,273.82c3.69,0,6.82,3.13,6.82,6.84,0,3.7-3.34,6.99-7.12,7-3.63.01-6.74-3.17-6.79-6.93-.05-3.79,3.15-6.91,7.09-6.92ZM244.27,281.18c-2.05-1.69-3.15-3.16-4.57-3.62-1.73-.56-3.13.68-3.19,2.56-.07,2.12,1.12,3.85,3.25,3.82,1.2-.01,2.39-1.4,4.51-2.77Z"/>
  <path class="cls-7" d="M365.12,291.05c1.4,1.46,2.14,2.23,2.77,2.89-3.09,3.02-6.07,5.92-9.06,8.84-1.51-1.27-3.49-2.81-5.33-4.51-2.06-1.91-2.16-4.67-.13-6.94,1.79-1.99,3.84-3.75,6.03-5.85.65.83,1.42,1.8,2.27,2.88-1.34,1.41-3.1,2.92-4.39,4.77-.61.87-.29,2.38-.39,3.6,1.23-.18,2.79.04,3.63-.63,1.67-1.34,2.95-3.17,4.6-5.04Z"/>
  <path class="cls-17" d="M374.32,308.82c-1.35-2.65-2.47-4.83-3.59-7.02-.39.19-.78.38-1.17.56.62,1.48,1.24,2.96,1.86,4.45.73,1.78.96,3.49-.76,4.88-1.77,1.44-3.57.97-5.26-.12-3.6-2.33-4.53-6.45-1.88-9.58,1.22,2.46,2.35,4.74,3.47,7.02.41-.2.81-.4,1.22-.59-.55-1.41-1.05-2.85-1.65-4.24-.82-1.9-1.19-4.07.91-4.94,1.43-.59,3.76-.32,5.12.51,3.3,2.02,3.96,5.46,1.73,9.07Z"/>
  <path class="cls-16" d="M251.09,475.4c1.1,1.03,1.93,1.8,2.77,2.57.64.58,1.21,1.38,1.96,1.65.58.21,1.41-.24,2.12-.4-.22-.67-.25-1.54-.7-1.98-.76-.76-2.09-1.06-2.62-1.91-.83-1.3-1.76-2.97-1.6-4.36.24-2.06,2.21-2.55,4.18-2.45,3.68.18,5.73,2.29,5.52,6.67-1.27-1.18-2.06-2.09-3.02-2.76-.84-.59-1.84-.97-2.81-1.32-.18-.06-.84.62-.81.67.48.79,1.04,1.53,1.6,2.27.11.15.33.23.5.33,2.15,1.32,4.11,2.83,2.85,5.73-1.17,2.68-3.59,2.62-5.9,2.04-3.24-.8-4.63-3-4.03-6.75Z"/>
  <path class="cls-1" d="M342.74,476.16c-.85-.27-2.04-.64-3.88-1.22-.82.37-2.43,1.11-4.03,1.83-2.36-3.88-.77-11.34,2.99-13.08.71,1.34,1.39,2.73,2.17,4.05.68,1.15.61,3.09,2.84,2.8.2-.02.8,1.24.78,1.89-.03.99-.43,1.96-.87,3.72Z"/>
  <path class="cls-1" d="M322.25,474.56c.35,1.54.82,3.06,1.02,4.62.35,2.79-1.15,5.07-3.59,5.76-2.71.76-4.49-.64-5.58-2.81-.77-1.55-1.17-3.36-1.39-5.09-.32-2.51.67-4.55,3.18-5.42,2.38-.83,4.26.13,5.67,2.12.22.31.5.58.75.87,0,0-.05-.05-.05-.05ZM321.43,479.62c-1.57-2.1-2.87-3.84-4.16-5.58-.58.88-1.58,1.71-1.66,2.63-.26,3.01,1.41,6.01,2.99,5.62.87-.21,1.51-1.37,2.83-2.67Z"/>
  <path class="cls-6" d="M330.34,478.5c1.43.23,3.64-2.68,4.26,1.28-2.8,1.03-5.63,2.08-9.29,3.43.33-1.66.42-2.72.77-3.69.73-2.04,1.75-4,2.32-6.07.18-.65-.69-1.58-1.07-2.39-.69.45-1.39.87-2.06,1.34-1.02.71-2.02,1.45-3.02,2.17,0,0,.05.05.05.05.34-1.49.28-3.25,1.1-4.4,1.46-2.06,3.84-2.57,6.1-1.34,2.15,1.16,2.4,3.25,1.65,5.44-.41,1.21-.89,2.41-1.34,3.61-.06.22-.12.45-.18.67.24-.03.48-.06.72-.1Z"/>
  <path class="cls-6" d="M303.33,486.72c.91-1.43,1.82-2.86,2.74-4.28.76-1.17,1.74-2.25,2.23-3.52.28-.73-.25-1.76-.41-2.65-.82.31-1.7.53-2.46.96-.85.47-1.6,1.12-2.63,1.86-.88-2.6-.05-4.4,1.72-4.87,1.81-.48,4.2-.45,5.74.42.91.52,1.11,3.18.79,4.7-.35,1.63-1.68,3.04-2.8,4.9,1.68-.2,2.94-.36,5.4-.66-.89,1.36-1.27,2.63-1.9,2.77-2.5.56-5.08.76-7.64,1.1-.26-.24-.52-.49-.78-.73Z"/>
  <path class="cls-13" d="M297.54,484.1h-6.48c1.62,3.78,4.43-.52,6.05,1.39-1.27,2.54-3.51,3.42-6.16,2.35-2.41-.98-3.56-3.48-2.82-6.14.65-2.33,3.12-3.84,5.57-3.42,2.74.47,4.05,2.39,3.83,5.82Z"/>
  <path class="cls-1" d="M269.26,485.57c-.96-.18-1.77-.34-2.83-.54.63-3.17,1.22-6.14,1.8-9.06,2.04.22,3.96.01,5.44.72,1.27.61,2.69,2.19,2.85,3.49.26,2.06-.48,4.25-.82,6.53-1.07-.16-1.82-.27-2.86-.42.28-1.77.71-3.41.73-5.04,0-.76-.81-1.53-1.25-2.29-.63.51-1.59.9-1.84,1.56-.57,1.55-.81,3.23-1.22,5.04Z"/>
  <path class="cls-3" d="M287.32,484.25c-1.82,3.37-3.98,4.03-6.52,3.25-2.35-.73-3.6-2.54-3.4-5.01.21-2.56,1.67-4.3,4.29-4.62,2.66-.32,4.61.77,5.77,4.12-1.46-.39-2.45-.8-3.48-.9-1.03-.1-2.43-.26-3.04.3-.51.46-.5,2.18-.03,2.85.4.55,1.81.48,2.77.48.98,0,1.97-.24,3.63-.46Z"/>
  <path class="cls-8" d="M263.84,474.61c1,.28,1.8.5,2.88.8-.79,3.01-1.52,5.84-2.32,8.88-.98-.14-1.8-.26-2.92-.42.81-3.17,1.56-6.09,2.36-9.25Z"/>
  <path class="cls-11" d="M265.81,469.74c.9,1.04,1.86,1.68,1.8,2.21-.08.72-.82,1.65-1.5,1.92-.38.15-1.71-.84-1.73-1.35-.03-.74.73-1.52,1.43-2.78Z"/>
  <path class="cls-9" d="M330.34,478.5c-.24.03-.48.06-.72.1.06-.22.12-.45.18-.67.18.19.36.38.53.58Z"/>
  <path class="cls-5" d="M347.39,389.93c-8.85,3.1-17.39,6.1-25.93,9.1-9.59,3.37-19.16,6.81-28.81,10.03-1.64.54-3.77.57-5.39.02-13.32-4.5-26.58-9.2-39.86-13.83-.74-.26-1.5-.44-2.55-.73v15.71c0,1.5,0,2.99,0,4.49-.01,2.09.32,4.69-2.74,4.64-2.79-.05-2.6-2.49-2.6-4.51,0-2.99,0-5.99,0-8.98,0-1.8-.12-3.6.02-5.39.42-5.25.53-10.23-7.49-10.07.21-.26.42-.51.63-.77,6.58-2.37,13.16-4.74,19.75-7.09,11.74-4.2,23.47-8.42,35.23-12.55,1.12-.39,2.59-.59,3.66-.21,18.17,6.38,36.29,12.85,54.43,19.32.46.16.88.44,1.66.83Z"/>
  <path class="cls-14" d="M290.3,298.46c15.31.09,25.66,15.87,19.4,29.83-5.46,12.18-11.16,24.26-16.85,36.33-.53,1.11-1.77,1.89-2.68,2.82-.9-.94-2.13-1.73-2.65-2.84-5.72-12.15-11.55-24.26-16.91-36.58-6.15-14.12,4.35-29.66,19.69-29.57ZM299.35,319.93c.07-4.97-3.97-9.16-9-9.32-4.91-.16-9.23,3.97-9.36,8.95-.13,4.92,3.95,9.14,9,9.32,4.86.17,9.29-4.06,9.36-8.96Z"/>
  <path class="cls-14" d="M252.71,402.61c11.51,4.07,22.61,7.92,33.64,11.93,2.39.87,4.49.91,6.9.03,10.2-3.72,20.47-7.27,30.71-10.87.93-.33,1.87-.59,3.03-.96,0,5.32.12,10.39-.04,15.45-.11,3.2-2.25,5.52-4.89,6.71-5.13,2.31-10.36,4.71-15.81,5.96-13.48,3.09-26.99,2.46-40.15-1.91-3.53-1.17-6.82-3.22-9.99-5.24-2.48-1.58-3.53-4.14-3.43-7.21.13-4.48.03-8.96.03-13.89Z"/>
</svg>